:SAMPLES-PER-SECOND 30
:FULLY-SPECIFIED
:DEGREES
324
root  78.896 40.4056 -1.40931 -114.993 -87.226 116.564
RightUpLeg  -0.0472106 -9.55005 -7.2162
RightLeg  4.6175 -8.14198 3.6641
RightFoot  -5.06623 -0.0261059 -0.160747
RightToes  0.00048216 0.542163 -0.142577
Spine  6.24906 -0.199194 -1.65917
Spine1  -0.0657512 -0.730488 2.78396
HEad  -4.98013 2.55719 0.365771
LeftShoulder1  1.35686 -3.90318 -11.066
LeftArm  -27.8474 9.75265 -2.12695
LeftForeArm  32.5874 -18.0176 -1.55052
LeftHand  -0.25398 0.0180481 5.50724
RightShoulder  0.322778 -0.984274 5.00754
RightArm  -30.6812 -4.59999 1.71116
RightForeArm  -7.70571 12.8518 2.95077
RightHand  -1.89667 5.96025 -19.6092
LeftUpLeg  0.216622 3.7726 0.852642
LeftLeg  -0.134346 14.9648 -4.33806
LeftFoot  -1.80676 0.0257051 -0.172276
LeftToes  1.06247e-005 4.65855e-005 -8.185e-006
325
root  78.8844 40.3923 -1.32802 -119.818 -87.3039 121.307
RightUpLeg  -0.112221 -9.44299 -7.11185
RightLeg  4.86319 -8.07571 3.53599
RightFoot  -5.05529 -0.0305214 -0.0921838
RightToes  0.00048216 0.542163 -0.142577
Spine  5.95869 -0.0891961 -1.6978
Spine1  -0.495106 -0.588175 2.71609
HEad  -4.28134 2.33806 0.5561
LeftShoulder1  1.06119 -2.93032 -9.03807
LeftArm  -32.8513 9.35973 -0.872254
LeftForeArm  33.8568 -20.9006 -2.33146
LeftHand  -0.25398 0.0180481 5.50724
RightShoulder  0.231887 -1.43493 3.1729
RightArm  -31.0147 -3.79871 0.32641
RightForeArm  -8.87467 13.4849 3.18276
RightHand  -1.94269 5.86365 -20.229
LeftUpLeg  -0.0519824 3.8858 0.947771
LeftLeg  0.706439 15.035 -4.1618
LeftFoot  -2.10903 0.0177326 -0.0483792
LeftToes  1.06247e-005 4.65855e-005 -8.185e-006
326
root  78.8727 40.3803 -1.26398 -127.561 -87.373 128.908
RightUpLeg  -0.0382774 -9.27224 -6.91385
RightLeg  4.95635 -7.98552 3.44316
RightFoot  -4.99733 -0.0408787 0.068633
RightToes  0.00048216 0.542163 -0.142577
Spine  5.90084 0.143986 -1.69129
Spine1  -1.05461 -0.324803 2.65949
HEad  -3.78636 2.20587 0.640328
LeftShoulder1  0.87526 -2.24636 -7.60818
LeftArm  -35.9466 8.77407 0.148462
LeftForeArm  31.8459 -23.0431 -3.20378
LeftHand  -0.25398 0.0180481 5.50724
RightShoulder  0.159531 -1.92523 1.91907
RightArm  -31.6378 -3.16873 -0.744212
RightForeArm  -9.07967 14.3125 3.361
RightHand  -2.00047 5.99875 -20.5729
LeftUpLeg  -0.184385 4.14473 1.19165
LeftLeg  1.40626 14.9166 -4.09424
LeftFoot  -2.48007 0.00200742 0.196
LeftToes  1.06247e-005 4.65855e-005 -8.185e-006
327
root  78.8493 40.3807 -1.21618 -131.907 -87.3953 133.065
RightUpLeg  0.275472 -9.17851 -6.85091
RightLeg  4.75895 -7.95475 3.42172
RightFoot  -4.91324 -0.0481542 0.181587
RightToes  0.00048216 0.542163 -0.142577
Spine  5.66987 0.340824 -1.8802
Spine1  -1.14486 -0.123281 2.66277
HEad  -3.67074 2.02366 0.699981
LeftShoulder1  0.751704 -1.76137 -6.53497
LeftArm  -37.494 7.95072 1.01299
LeftForeArm  30.7474 -24.5502 -3.64695
LeftHand  -0.25398 0.0180481 5.50724
RightShoulder  0.104502 -2.38841 1.08682
RightArm  -32.503 -2.57148 -1.3546
RightForeArm  -8.69659 14.8965 3.41759
RightHand  -2.14466 6.58022 -20.9766
LeftUpLeg  -0.00278856 4.32776 1.33153
LeftLeg  1.55112 14.8882 -4.15036
LeftFoot  -2.61406 -0.0136717 0.439669
LeftToes  1.06247e-005 4.65855e-005 -8.185e-006
328
root  78.8115 40.3897 -1.1768 -129.936 -87.4918 130.96
RightUpLeg  0.667695 -9.18774 -6.93269
RightLeg  4.42324 -8.04791 3.45097
RightFoot  -4.81639 -0.0515727 0.234658
RightToes  0.00048216 0.542163 -0.142577
Spine  5.2679 0.336575 -2.15332
Spine1  -0.996211 -0.12052 2.62196
HEad  -3.73719 1.52649 0.734147
LeftShoulder1  0.639223 -1.29337 -5.45665
LeftArm  -37.2333 6.88438 1.23813
LeftForeArm  29.7366 -24.5477 -3.69384
LeftHand  -0.25398 0.0180481 5.50724
RightShoulder  0.0729509 -2.68973 0.620431
RightArm  -33.1736 -1.91715 -1.43563
RightForeArm  -8.66616 15.0233 3.39917
RightHand  -2.36281 7.27985 -21.8112
LeftUpLeg  0.355326 4.35058 1.3205
LeftLeg  1.21002 14.8318 -4.27026
LeftFoot  -2.4826 -0.0192495 0.526357
LeftToes  1.06247e-005 4.65855e-005 -8.185e-006
329
root  78.7669 40.3965 -1.14063 -125.056 -87.6911 126.045
RightUpLeg  0.965451 -9.19358 -6.98677
RightLeg  4.14274 -8.25787 3.4824
RightFoot  -4.72783 -0.0590157 0.350201
RightToes  0.00048216 0.542163 -0.142577
Spine  4.88301 0.190098 -2.26131
Spine1  -1.01448 -0.235865 2.47191
HEad  -3.88128 0.610671 0.583724
LeftShoulder1  0.556184 -0.961383 -4.48481
LeftArm  -35.8605 5.75419 0.825049
LeftForeArm  29.2827 -22.9524 -3.31585
LeftHand  -0.25398 0.0180481 5.50724
RightShoulder  0.0610123 -2.81829 0.540294
RightArm  -33.3764 -1.17058 -1.14195
RightForeArm  -8.60951 14.6071 3.28141
RightHand  -2.54609 7.74767 -22.6418
LeftUpLeg  0.608775 4.30955 1.29153
LeftLeg  0.845269 14.5733 -4.34632
LeftFoot  -2.35013 -0.0200783 0.539237
LeftToes  1.06247e-005 4.65855e-005 -8.185e-006
330
root  78.7244 40.3967 -1.11483 -120.573 -87.8968 121.575
RightUpLeg  1.12861 -9.13822 -6.94651
RightLeg  4.00427 -8.52695 3.47035
RightFoot  -4.70521 -0.0688916 0.503502
RightToes  0.00048216 0.542163 -0.142577
Spine  4.47852 0.0956354 -2.33772
Spine1  -0.999709 -0.323349 2.45318
HEad  -4.63043 -0.608393 0.0198034
LeftShoulder1  0.548262 -0.993289 -4.18207
LeftArm  -33.5239 4.68959 0.25893
LeftForeArm  28.4962 -20.3898 -2.48557
LeftHand  -0.25398 0.0180481 5.50724
RightShoulder  0.0608321 -2.83639 0.775951
RightArm  -33.0948 -0.420199 -0.713355
RightForeArm  -7.71548 13.5569 3.00822
RightHand  -2.56383 7.78654 -22.7259
LeftUpLeg  0.645212 4.28761 1.30442
LeftLeg  0.797456 14.2838 -4.31578
LeftFoot  -2.37178 -0.0225882 0.578244
LeftToes  1.06247e-005 4.65855e-005 -8.185e-006
331
root  78.6862 40.3921 -1.10569 -115.655 -88.041 116.643
RightUpLeg  1.238 -9.08884 -6.9058
RightLeg  3.99281 -8.80334 3.42799
RightFoot  -4.76293 -0.0712994 0.540874
RightToes  0.00048216 0.542163 -0.142577
Spine  4.01425 0.0735113 -2.64697
Spine1  -0.641371 -0.408138 2.77945
HEad  -6.48043 -2.16492 -0.833121
LeftShoulder1  0.609298 -1.26049 -4.85388
LeftArm  -30.642 3.74533 -0.0917246
LeftForeArm  26.8353 -17.5913 -1.62832
LeftHand  -0.25398 0.0180481 5.50724
RightShoulder  0.0719898 -2.73435 1.05686
RightArm  -32.2535 0.211279 -0.127778
RightForeArm  -6.03122 11.8431 2.63414
RightHand  -2.38018 7.29227 -21.9424
LeftUpLeg  0.592497 4.25903 1.30452
LeftLeg  0.999041 14.1159 -4.20155
LeftFoot  -2.46408 -0.0223924 0.575202
LeftToes  1.06247e-005 4.65855e-005 -8.185e-006
332
root  78.6467 40.3872 -1.1058 -107.782 -88.1489 108.698
RightUpLeg  1.41382 -9.10767 -6.92253
RightLeg  4.00082 -9.09045 3.41793
RightFoot  -4.81614 -0.0643208 0.432552
RightToes  0.00048216 0.542163 -0.142577
Spine  3.66904 0.0333524 -2.99866
Spine1  -0.160426 -0.509118 3.07175
HEad  -7.66161 -3.52936 -1.03364
LeftShoulder1  0.708822 -1.6691 -5.88931
LeftArm  -28.3648 3.14491 -0.430154
LeftForeArm  25.8535 -15.0564 -1.039
LeftHand  -0.25398 0.0180481 5.50724
RightShoulder  0.0974364 -2.49974 1.44526
RightArm  -30.6757 0.595828 0.508562
RightForeArm  -3.83673 9.60667 2.30641
RightHand  -2.08753 6.41731 -20.7073
LeftUpLeg  0.597567 4.16964 1.25854
LeftLeg  1.2185 13.946 -4.03327
LeftFoot  -2.52728 -0.0168226 0.488638
LeftToes  1.06247e-005 4.65855e-005 -8.185e-006
333
root  78.5996 40.3872 -1.10608 -97.7573 -88.2438 98.5803
RightUpLeg  1.68454 -9.15332 -6.9443
RightLeg  3.9196 -9.39597 3.45954
RightFoot  -4.7791 -0.0550853 0.289188
RightToes  0.00048216 0.542163 -0.142577
Spine  3.58433 -0.0579921 -3.03187
Spine1  0.0756046 -0.56196 2.83986
HEad  -8.38839 -4.63176 -0.595994
LeftShoulder1  0.822176 -2.23693 -6.59752
LeftArm  -27.2468 3.11868 -0.966322
LeftForeArm  26.699 -12.9998 -0.574594
LeftHand  -0.25398 0.0180481 5.50724
RightShoulder  0.145162 -2.10595 2.20848
RightArm  -28.5893 0.696694 0.907043
RightForeArm  -0.750819 7.0209 2.02993
RightHand  -1.79326 5.55725 -19.2257
LeftUpLeg  0.680926 4.02077 1.19015
LeftLeg  1.3225 13.7311 -3.82965
LeftFoot  -2.54021 -0.0142966 0.449381
LeftToes  1.06247e-005 4.65855e-005 -8.185e-006
334
root  78.5455 40.3933 -1.10845 -89.6378 -88.3002 90.4088
RightUpLeg  1.94383 -9.16372 -6.92993
RightLeg  3.76344 -9.65058 3.5071
RightFoot  -4.67338 -0.0487194 0.190362
RightToes  0.00048216 0.542163 -0.142577
Spine  3.64104 -0.138731 -2.85932
Spine1  0.116181 -0.545477 2.31216
HEad  -9.6125 -5.44657 -0.0843677
LeftShoulder1  0.9255 -2.76666 -7.09558
LeftArm  -25.9146 3.43868 -1.64264
LeftForeArm  25.6397 -11.0268 -0.41876
LeftHand  -0.25398 0.0180481 5.50724
RightShoulder  0.209359 -1.63756 3.17713
RightArm  -26.808 0.684799 1.0903
RightForeArm  3.28275 4.21734 1.64214
RightHand  -1.54498 4.98415 -17.5282
LeftUpLeg  0.804208 3.86511 1.12271
LeftLeg  1.26973 13.6444 -3.6487
LeftFoot  -2.48792 -0.0205502 0.546572
LeftToes  1.06247e-005 4.65855e-005 -8.185e-006
335
root  78.4883 40.4013 -1.11754 -85.5016 -88.3102 86.2886
RightUpLeg  2.10462 -9.1526 -6.91078
RightLeg  3.60998 -9.77752 3.53855
RightFoot  -4.58018 -0.0454466 0.139552
RightToes  0.00048216 0.542163 -0.142577
Spine  3.50846 -0.169072 -2.81601
Spine1  0.422215 -0.525402 2.03511
HEad  -10.9702 -5.70328 0.355111
LeftShoulder1  0.992185 -2.95679 -7.76842
LeftArm  -25.0692 3.68602 -2.0179
LeftForeArm  25.4332 -9.69403 -0.380444
LeftHand  -0.25398 0.0180481 5.50724
RightShoulder  0.258187 -1.31017 3.81046
RightArm  -26.1515 0.738952 1.45555
RightForeArm  6.87102 1.53635 1.06661
RightHand  -1.3398 4.49253 -15.993
LeftUpLeg  0.945161 3.75111 1.07018
LeftLeg  1.07876 13.7059 -3.55498
LeftFoot  -2.38005 -0.0262715 0.63549
LeftToes  1.06247e-005 4.65855e-005 -8.185e-006
